<svg fill="#000000" xmlns="http://www.w3.org/2000/svg" viewBox="0 0 50 50" width="500px" height="500px">
    <path d="M 13 4 C 8.037 4 4 8.037 4 13 L 4 13.869141 L 4 14.662109 L 4 37 C 4 41.95997 8.0400302 46 13 46 L 37 46 C 41.95997 46 46 41.95997 46 37 L 46 13 C 46 8.0400302 41.95997 4 37 4 L 14.662109 4 L 13.869141 4 L 13 4 z M 14.974609 6 L 27.083984 6 L 13.291016 19.792969 A 1.0001 1.0001 0 0 0 13.291016 21.207031 L 28.792969 36.708984 A 1.0001 1.0001 0 0 0 30.207031 36.708984 L 44 22.916016 L 44 37 C 44 40.88003 40.88003 44 37 44 L 13 44 C 10.196578 44 7.7974528 42.367387 6.6777344 40 L 17 40 L 39 40 A 1.0001 1.0001 0 1 0 39 38 L 17.664062 38 L 12.421875 25.611328 A 1.0001 1.0001 0 0 0 11.470703 25 A 1.0001 1.0001 0 0 0 10.578125 25.611328 L 6 36.431641 L 6 14.974609 C 6.1663 14.984161 6.3311439 15 6.5 15 C 11.187 15 15 11.187 15 6.5 C 15 6.3311439 14.984161 6.1663 14.974609 6 z M 31.916016 6 L 37 6 C 40.88003 6 44 9.1199698 44 13 L 44 18.083984 L 31.916016 6 z M 29.5 6.4140625 L 43.585938 20.5 L 29.5 34.585938 L 15.414062 20.5 L 29.5 6.4140625 z M 7.875 7 L 10.248047 7 C 11.075047 7 11.748047 7.673 11.748047 8.5 C 11.748047 8.986 11.512344 9.4154531 11.152344 9.6894531 L 11.947266 11.275391 C 12.024266 11.431391 12.016781 11.615672 11.925781 11.763672 C 11.833781 11.910672 11.673 12 11.5 12 L 10.699219 12 C 10.510219 12 10.338906 11.893609 10.253906 11.724609 L 9.3847656 9.9882812 C 9.3817656 9.9882812 9.379 9.9863281 9.375 9.9863281 L 9.375 11.5 C 9.375 11.776 9.151 12 8.875 12 L 7.875 12 C 7.599 12 7.375 11.776 7.375 11.5 L 7.375 7.5 C 7.375 7.224 7.599 7 7.875 7 z M 9.5 8 C 9.225 8 9 8.225 9 8.5 C 9 8.775 9.225 9 9.5 9 L 10.25 9 C 10.525 9 10.75 8.775 10.75 8.5 C 10.75 8.225 10.525 8 10.25 8 L 9.5 8 z M 29.501953 12.085938 C 29.246203 12.085938 28.990422 12.185359 28.794922 12.380859 L 26.773438 14.400391 C 26.382438 14.791391 26.382438 15.423453 26.773438 15.814453 L 28.794922 17.837891 C 28.982922 18.025891 29.235953 18.130859 29.501953 18.130859 C 29.767953 18.130859 30.020031 18.025891 30.207031 17.837891 L 32.228516 15.814453 C 32.618516 15.424453 32.618516 14.791391 32.228516 14.400391 L 30.207031 12.380859 C 30.011531 12.185359 29.757703 12.085938 29.501953 12.085938 z M 35.566406 15.455078 C 35.300406 15.455078 35.046375 15.560047 34.859375 15.748047 L 24.748047 25.857422 C 24.560047 26.045422 24.455078 26.299453 24.455078 26.564453 C 24.455078 26.830453 24.560047 27.084484 24.748047 27.271484 L 26.771484 29.292969 C 26.966484 29.487969 27.222516 29.585937 27.478516 29.585938 C 27.734516 29.585938 27.990547 29.487969 28.185547 29.292969 L 38.292969 19.185547 C 38.684969 18.795547 38.685922 18.162484 38.294922 17.771484 L 36.273438 15.748047 C 36.085437 15.560047 35.832406 15.455078 35.566406 15.455078 z M 24.109375 17.478516 C 23.853625 17.478516 23.597844 17.575984 23.402344 17.771484 L 21.380859 19.792969 C 20.989859 20.183969 20.989859 20.816031 21.380859 21.207031 L 23.402344 23.228516 C 23.597344 23.423516 23.853375 23.521484 24.109375 23.521484 C 24.365375 23.521484 24.621406 23.423516 24.816406 23.228516 L 26.837891 21.207031 C 27.025891 21.019031 27.130859 20.766 27.130859 20.5 C 27.130859 20.234 27.024891 19.979969 26.837891 19.792969 L 24.816406 17.771484 C 24.620906 17.575984 24.365125 17.478516 24.109375 17.478516 z M 11.5 28.568359 L 15.490234 38 L 7.5097656 38 L 11.5 28.568359 z"/>
</svg>